<svg width="212" height="160" viewBox="0 0 212 160" fill="none" xmlns="http://www.w3.org/2000/svg">
<g opacity="0.5" filter="url(#filter0_d)">
<path d="M81.1047 116.786V116.489C81.1047 116.219 81.3228 116 81.5918 116C81.8609 116 82.079 116.219 82.079 116.489V116.786C82.079 117.056 81.8609 117.275 81.5918 117.275C81.3228 117.275 81.1047 117.056 81.1047 116.786ZM76.3935 118.314C76.4837 118.47 76.6475 118.558 76.8159 118.558C76.8985 118.558 76.9823 118.537 77.0589 118.493C77.292 118.358 77.3719 118.059 77.2375 117.825L77.0893 117.568C76.9548 117.334 76.6568 117.254 76.4239 117.389C76.1908 117.524 76.1109 117.822 76.2453 118.056L76.3935 118.314ZM86.1246 118.493C86.2013 118.537 86.285 118.558 86.3677 118.558C86.536 118.558 86.6998 118.471 86.79 118.314L86.9383 118.056C87.0728 117.823 86.993 117.524 86.7599 117.389C86.527 117.254 86.229 117.334 86.0945 117.568L85.9462 117.825C85.8117 118.059 85.8915 118.358 86.1246 118.493ZM89.8651 122.065C89.9478 122.065 90.0316 122.044 90.1083 121.999L90.3651 121.851C90.5981 121.716 90.6779 121.417 90.5433 121.183C90.4088 120.95 90.1109 120.869 89.8778 121.004L89.621 121.153C89.3881 121.288 89.3083 121.587 89.4428 121.821C89.533 121.977 89.6967 122.065 89.8651 122.065ZM91.1315 130.73C90.4989 131.987 88.7311 132.832 86.7326 132.832C85.3626 132.832 84.0792 132.436 83.2068 131.757C82.707 132.101 82.1794 132.322 81.6566 132.39C81.6328 132.393 81.6089 132.394 81.5858 132.394C81.5664 132.394 81.5468 132.392 81.5272 132.39C81.0043 132.322 80.4767 132.101 79.9769 131.757C79.1044 132.436 77.8212 132.832 76.4511 132.832C74.4526 132.832 72.6848 131.987 72.0522 130.73C71.9826 130.592 71.9826 130.428 72.0522 130.29C72.519 129.362 73.5864 128.658 74.937 128.353C74.2362 127.355 73.9803 126.175 74.2977 125.166C74.3365 125.043 74.4227 124.94 74.5372 124.88C75.3377 124.462 76.3528 124.431 77.3411 124.779C77.4878 124.291 77.7186 123.867 78.0314 123.536C78.1385 123.423 78.293 123.368 78.4471 123.388C78.7026 123.421 78.9593 123.491 79.2134 123.594C79.7288 122.501 80.4885 121.687 81.3885 121.272C81.5175 121.213 81.6659 121.213 81.7949 121.272C82.6946 121.686 83.4541 122.5 83.9696 123.592C84.2237 123.49 84.4806 123.421 84.7366 123.388C84.8909 123.368 85.0452 123.423 85.1522 123.536C85.4651 123.867 85.6959 124.291 85.8426 124.778C86.8309 124.431 87.846 124.462 88.6464 124.88C88.7609 124.94 88.8471 125.042 88.8859 125.166C89.2034 126.175 88.9475 127.355 88.2466 128.353C89.5973 128.658 90.6647 129.362 91.1315 130.29C91.2011 130.428 91.2011 130.592 91.1315 130.73ZM85.2328 129.344C85.7619 129.212 86.2874 128.941 86.7503 128.551C87.6958 127.756 88.1911 126.597 88.0077 125.661C87.4354 125.438 86.7217 125.473 86.0183 125.756C86.0859 126.668 85.9219 127.7 85.5166 128.715C85.4305 128.931 85.3355 129.141 85.2328 129.344ZM80.0676 124.07C80.6288 124.471 81.1523 125.025 81.5908 125.689C82.0315 125.018 82.5545 124.464 83.1143 124.066C82.7391 123.253 82.202 122.617 81.5918 122.266C80.9806 122.618 80.4428 123.255 80.0676 124.07ZM76.4332 128.551C76.8961 128.941 77.4218 129.212 77.9509 129.344C77.8482 129.141 77.7533 128.931 77.667 128.715C77.2619 127.7 77.0979 126.668 77.1654 125.756C76.462 125.472 75.7483 125.438 75.1759 125.661C74.9925 126.597 75.4878 127.756 76.4332 128.551ZM79.2073 131.109C78.9975 130.898 78.7971 130.664 78.6093 130.412C77.6439 130.395 76.6368 129.998 75.8069 129.3C75.772 129.27 75.7377 129.241 75.7038 129.211C74.5172 129.358 73.5228 129.849 73.0549 130.51C73.6237 131.312 74.9686 131.855 76.451 131.855C77.5034 131.855 78.51 131.577 79.2073 131.109ZM81.4025 127.426C80.917 126.209 80.1053 125.205 79.2521 124.699C79.2282 124.687 79.2057 124.674 79.1846 124.66C78.9827 124.546 78.779 124.461 78.577 124.408C78.375 124.697 78.2398 125.068 78.1725 125.49C78.1708 125.516 78.167 125.541 78.1611 125.567C78.0487 126.382 78.1828 127.378 78.5715 128.352C78.9639 129.336 79.5693 130.18 80.2375 130.735C80.2531 130.746 80.2681 130.758 80.2826 130.772C80.6446 131.064 81.024 131.272 81.3971 131.37C81.9959 130.512 82.0078 128.943 81.4025 127.426ZM84.612 128.352C85.0007 127.378 85.1348 126.383 85.0227 125.568C85.0165 125.542 85.0126 125.515 85.0109 125.489C84.9436 125.067 84.8084 124.697 84.6066 124.408C84.4076 124.46 84.2067 124.543 84.0071 124.654C83.9808 124.673 83.9521 124.69 83.9214 124.703C83.2587 125.098 82.6192 125.794 82.1377 126.67C82.1973 126.798 82.2538 126.929 82.3071 127.063C82.8595 128.447 82.9636 129.862 82.6438 130.963C82.7307 130.904 82.8171 130.84 82.9024 130.771C82.9159 130.758 82.93 130.747 82.9445 130.736C83.6134 130.181 84.2194 129.336 84.612 128.352ZM90.1287 130.51C89.6608 129.849 88.6663 129.358 87.4797 129.211C87.4459 129.241 87.4114 129.27 87.3766 129.3C86.5467 129.998 85.5397 130.395 84.5744 130.412C84.3865 130.664 84.1862 130.898 83.9763 131.109C84.6737 131.577 85.6803 131.855 86.7326 131.855C88.2149 131.855 89.5599 131.312 90.1287 130.51ZM86.3145 134.123C86.1116 133.946 85.8039 133.968 85.6271 134.171C85.3199 134.525 83.8648 135.023 81.5918 135.023C79.3188 135.023 77.8637 134.525 77.5565 134.171C77.3798 133.968 77.0721 133.946 76.8692 134.123C76.6663 134.301 76.6451 134.609 76.8218 134.813C77.5829 135.689 79.8671 136 81.5919 136C83.3167 136 85.6008 135.689 86.3619 134.813C86.5386 134.609 86.5173 134.301 86.3145 134.123ZM75.1877 123.786C75.4465 123.859 75.7157 123.707 75.7887 123.448C76.5169 120.855 78.9033 119.045 81.5918 119.045C84.2804 119.045 86.6668 120.855 87.395 123.448C87.4556 123.663 87.651 123.804 87.8637 123.804C87.9074 123.804 87.9519 123.798 87.996 123.786C88.255 123.712 88.4058 123.442 88.3328 123.183C87.4868 120.171 84.7148 118.068 81.5918 118.068C78.4689 118.068 75.6969 120.171 74.8509 123.183C74.7779 123.442 74.9287 123.712 75.1877 123.786ZM81.5918 134.358C82.0104 134.358 83.4148 134.313 83.9147 133.737C84.0913 133.534 84.07 133.225 83.8671 133.048C83.6653 132.872 83.3596 132.892 83.1826 133.093C83.0715 133.194 82.4948 133.381 81.5918 133.381C80.6886 133.381 80.112 133.194 80.0009 133.092C79.8238 132.892 79.5183 132.872 79.3164 133.048C79.1135 133.225 79.0923 133.534 79.269 133.737C79.769 134.313 81.1734 134.358 81.5918 134.358ZM72.8185 121.851L73.0752 121.999C73.1519 122.044 73.2357 122.065 73.3185 122.065C73.4868 122.065 73.6504 121.977 73.7407 121.821C73.8754 121.587 73.7956 121.288 73.5626 121.153L73.306 121.004C73.0732 120.87 72.7751 120.949 72.6405 121.183C72.5059 121.417 72.5856 121.716 72.8185 121.851Z" fill="white"/>
</g>
<defs>
<filter id="filter0_d" x="-48" y="3.05176e-05" width="259.184" height="260" filterUnits="userSpaceOnUse" color-interpolation-filters="sRGB">
<feFlood flood-opacity="0" result="BackgroundImageFix"/>
<feColorMatrix in="SourceAlpha" type="matrix" values="0 0 0 0 0 0 0 0 0 0 0 0 0 0 0 0 0 0 127 0" result="hardAlpha"/>
<feOffset dy="4"/>
<feGaussianBlur stdDeviation="60"/>
<feColorMatrix type="matrix" values="0 0 0 0 1 0 0 0 0 1 0 0 0 0 1 0 0 0 1 0"/>
<feBlend mode="normal" in2="BackgroundImageFix" result="effect1_dropShadow"/>
<feBlend mode="normal" in="SourceGraphic" in2="effect1_dropShadow" result="shape"/>
</filter>
</defs>
</svg>
