<svg width="30" height="28" viewBox="0 0 30 28" fill="none" xmlns="http://www.w3.org/2000/svg">
<g filter="url(#filter0_d)">
<g opacity="0.5">
<path opacity="0.5" d="M24.9968 6.52772C24.3645 5.2308 23.2784 4.50465 22.2276 3.80157C21.4445 3.27695 20.706 2.78157 20.183 2.07234L20.086 1.94157C19.7784 1.52772 19.4276 1.05849 19.3737 0.664646C19.3691 0.632338 19.3507 0.606184 19.3414 0.573877C19.3276 0.520031 19.3122 0.469261 19.2876 0.420031C19.2691 0.380031 19.243 0.344646 19.2153 0.307723C19.183 0.266184 19.1522 0.226184 19.1122 0.192338C19.0737 0.158492 19.0322 0.135415 18.9891 0.109261C18.9491 0.0861844 18.9122 0.0646459 18.8676 0.0492613C18.8137 0.0292613 18.7584 0.021569 18.6999 0.0154151C18.6707 0.0138767 18.646 3.05176e-05 18.6153 3.05176e-05C18.5968 3.05176e-05 18.5814 0.00926133 18.5645 0.0107998C18.546 0.0123383 18.5291 0.00464589 18.5107 0.00772282C18.4768 0.0123382 18.4507 0.0307998 18.4184 0.0400306C18.366 0.0538767 18.3168 0.0677228 18.2707 0.0923382C18.2276 0.113877 18.1907 0.141569 18.1537 0.172338C18.1137 0.203107 18.0753 0.233877 18.043 0.272338C18.0107 0.309261 17.9876 0.349261 17.963 0.3908C17.9384 0.433877 17.9153 0.475415 17.8984 0.523108C17.8814 0.5708 17.8753 0.620031 17.8691 0.672338C17.8614 0.703108 17.846 0.733877 17.846 0.769261V14.477C17.2014 14.0862 16.4076 13.8462 15.5384 13.8462C13.4168 13.8462 11.6922 15.2262 11.6922 16.9231C11.6922 18.62 13.4168 20 15.5384 20C17.6599 20 19.3845 18.62 19.3845 16.9231V7.95695C20.5399 8.39849 22.4307 9.52311 22.9507 12.1493C22.8537 12.2923 22.7614 12.4477 22.6537 12.5693C22.3722 12.8877 22.4045 13.3739 22.723 13.6539C22.8691 13.7831 23.0507 13.8462 23.2307 13.8462C23.4445 13.8462 23.6553 13.757 23.8076 13.5846C24.0122 13.3523 24.1953 13.077 24.3707 12.7939C24.3907 12.7693 24.406 12.7462 24.423 12.72C25.0445 11.68 25.4568 10.3646 25.5353 9.06465C25.586 8.22926 25.3999 7.35234 24.9968 6.52772ZM15.5384 18.4616C14.2876 18.4616 13.2307 17.757 13.2307 16.9231C13.2307 16.0893 14.2876 15.3846 15.5384 15.3846C16.7891 15.3846 17.846 16.0893 17.846 16.9231C17.846 17.757 16.7891 18.4616 15.5384 18.4616ZM24.0014 8.96772C23.9799 9.32772 23.9245 9.68772 23.846 10.04C22.7645 7.86926 20.803 6.73849 19.3845 6.32003V3.49388C19.9876 4.13695 20.6876 4.61849 21.3737 5.07695C22.2953 5.69388 23.166 6.27695 23.6168 7.20157C23.8999 7.77849 24.0353 8.40772 24.0014 8.96772Z" fill="white"/>
<path opacity="0.5" d="M14 3.05176e-05H4.76923C4.34462 3.05176e-05 4 0.344646 4 0.769261C4 1.19388 4.34462 1.53849 4.76923 1.53849H14C14.4246 1.53849 14.7692 1.19388 14.7692 0.769261C14.7692 0.344646 14.4246 3.05176e-05 14 3.05176e-05Z" fill="white"/>
<path opacity="0.5" d="M14 4.61545H4.76923C4.34462 4.61545 4 4.96006 4 5.38468C4 5.80929 4.34462 6.15391 4.76923 6.15391H14C14.4246 6.15391 14.7692 5.80929 14.7692 5.38468C14.7692 4.96006 14.4246 4.61545 14 4.61545Z" fill="white"/>
<path opacity="0.5" d="M9.38461 9.2309H4.76923C4.34462 9.2309 4 9.57551 4 10.0001C4 10.4247 4.34462 10.7694 4.76923 10.7694H9.38461C9.80923 10.7694 10.1539 10.4247 10.1539 10.0001C10.1539 9.57551 9.80923 9.2309 9.38461 9.2309Z" fill="white"/>
<path opacity="0.5" d="M9.38461 13.8461H4.76923C4.34462 13.8461 4 14.1907 4 14.6154C4 15.04 4.34462 15.3846 4.76923 15.3846H9.38461C9.80923 15.3846 10.1539 15.04 10.1539 14.6154C10.1539 14.1907 9.80923 13.8461 9.38461 13.8461Z" fill="white"/>
</g>
</g>
<defs>
<filter id="filter0_d" x="0" y="0" width="30" height="28" filterUnits="userSpaceOnUse" color-interpolation-filters="sRGB">
<feFlood flood-opacity="0" result="BackgroundImageFix"/>
<feColorMatrix in="SourceAlpha" type="matrix" values="0 0 0 0 0 0 0 0 0 0 0 0 0 0 0 0 0 0 127 0" result="hardAlpha"/>
<feOffset dy="4"/>
<feGaussianBlur stdDeviation="2"/>
<feComposite in2="hardAlpha" operator="out"/>
<feColorMatrix type="matrix" values="0 0 0 0 0 0 0 0 0 0 0 0 0 0 0 0 0 0 0.25 0"/>
<feBlend mode="normal" in2="BackgroundImageFix" result="effect1_dropShadow"/>
<feBlend mode="normal" in="SourceGraphic" in2="effect1_dropShadow" result="shape"/>
</filter>
</defs>
</svg>
