<svg width="284" height="232" viewBox="0 0 284 232" fill="none" xmlns="http://www.w3.org/2000/svg">
<g filter="url(#filter0_d)">
<path d="M140.603 60.9256V60.197C140.603 59.5359 141.096 59 141.705 59C142.314 59 142.807 59.5359 142.807 60.197V60.9256C142.807 61.5868 142.314 62.1227 141.705 62.1227C141.096 62.1227 140.603 61.5867 140.603 60.9256ZM129.942 64.6683C130.146 65.0526 130.517 65.2674 130.898 65.2674C131.085 65.2674 131.274 65.2157 131.448 65.107C131.975 64.7766 132.156 64.0446 131.852 63.472L131.516 62.841C131.212 62.2683 130.538 62.072 130.011 62.4022C129.483 62.7326 129.302 63.4647 129.607 64.0372L129.942 64.6683ZM151.962 65.107C152.136 65.2158 152.325 65.2675 152.512 65.2675C152.893 65.2675 153.264 65.0527 153.468 64.6687L153.803 64.0378C154.108 63.4652 153.927 62.7331 153.4 62.4026C152.873 62.0723 152.198 62.2684 151.894 62.8409L151.558 63.4718C151.254 64.0443 151.435 64.7763 151.962 65.107ZM160.426 73.859C160.613 73.859 160.803 73.8073 160.977 73.6984L161.558 73.3341C162.085 73.0034 162.265 72.2712 161.961 71.6988C161.657 71.1263 160.982 70.9302 160.455 71.2609L159.874 71.6252C159.347 71.9559 159.166 72.6879 159.471 73.2605C159.675 73.6444 160.045 73.859 160.426 73.859ZM163.292 95.0884C161.86 98.169 157.86 100.239 153.338 100.239C150.238 100.239 147.334 99.2679 145.359 97.6055C144.228 98.4471 143.034 98.989 141.852 99.1546C141.798 99.1622 141.744 99.165 141.691 99.1644C141.647 99.164 141.603 99.1608 141.559 99.1546C140.376 98.9889 139.182 98.447 138.051 97.6055C136.076 99.268 133.173 100.239 130.072 100.239C125.55 100.239 121.55 98.169 120.118 95.0884C119.961 94.7494 119.961 94.3492 120.118 94.01C121.174 91.7365 123.59 90.0125 126.646 89.2652C125.06 86.8193 124.481 83.9291 125.199 81.4567C125.287 81.1541 125.482 80.9018 125.741 80.7553C127.553 79.7306 129.85 79.6564 132.086 80.5074C132.418 79.3132 132.94 78.2741 133.648 77.4641C133.89 77.187 134.24 77.0522 134.589 77.101C135.167 77.182 135.748 77.3529 136.323 77.6047C137.489 74.928 139.208 72.9319 141.245 71.917C141.537 71.7715 141.873 71.7715 142.164 71.917C144.2 72.9313 145.919 74.9261 147.086 77.6011C147.661 77.3514 148.242 77.1823 148.821 77.101C149.17 77.0522 149.52 77.187 149.762 77.4641C150.47 78.2741 150.992 79.3131 151.324 80.5071C153.56 79.6563 155.857 79.7307 157.668 80.7551C157.928 80.9017 158.123 81.154 158.21 81.4565C158.929 83.929 158.35 86.819 156.764 89.265C159.82 90.0122 162.236 91.7362 163.292 94.0097C163.449 94.3492 163.449 94.7494 163.292 95.0884ZM149.944 91.6928C151.141 91.3699 152.33 90.7047 153.378 89.7504C155.518 87.8011 156.638 84.963 156.223 82.6692C154.928 82.1231 153.313 82.2078 151.722 82.9013C151.874 85.1363 151.503 87.6644 150.586 90.1526C150.391 90.6816 150.176 91.1959 149.944 91.6928ZM138.256 78.771C139.526 79.7527 140.71 81.1115 141.703 82.7369C142.7 81.094 143.883 79.7374 145.15 78.7614C144.301 76.7694 143.086 75.2114 141.705 74.3505C140.322 75.2129 139.105 76.7745 138.256 78.771ZM130.032 89.7503C131.079 90.7047 132.269 91.3702 133.466 91.693C133.234 91.1958 133.019 90.6817 132.824 90.1524C131.907 87.6644 131.536 85.1361 131.689 82.9013C130.097 82.2075 128.482 82.1228 127.187 82.6689C126.772 84.9628 127.892 87.801 130.032 89.7503ZM136.309 96.0181C135.834 95.4995 135.381 94.9269 134.956 94.3083C132.771 94.2678 130.492 93.2955 128.614 91.5843C128.535 91.5123 128.458 91.4397 128.381 91.3659C125.696 91.7271 123.446 92.9288 122.387 94.5489C123.674 96.5149 126.718 97.8449 130.072 97.8449C132.453 97.8449 134.731 97.163 136.309 96.0181ZM141.277 86.9927C140.178 84.0113 138.341 81.5526 136.41 80.3117C136.357 80.284 136.306 80.252 136.258 80.2163C135.801 79.9385 135.34 79.7298 134.883 79.5989C134.426 80.3085 134.12 81.2163 133.968 82.2504C133.964 82.3134 133.955 82.3764 133.942 82.439C133.687 84.4361 133.991 86.8757 134.871 89.2632C135.758 91.6726 137.128 93.7405 138.64 95.1004C138.676 95.128 138.71 95.1582 138.742 95.191C139.562 95.9076 140.42 96.4155 141.264 96.6572C142.619 94.5537 142.646 90.7101 141.277 86.9927ZM148.539 89.263C149.419 86.8765 149.722 84.4376 149.468 82.4408C149.455 82.3767 149.446 82.3121 149.442 82.2476C149.29 81.2145 148.984 80.3076 148.527 79.5985C148.077 79.727 147.622 79.9309 147.171 80.2022C147.111 80.2489 147.046 80.2896 146.976 80.3233C145.477 81.2911 144.03 82.9952 142.94 85.1411C143.075 85.4558 143.203 85.7767 143.323 86.1035C144.574 89.4959 144.809 92.9627 144.085 95.6595C144.282 95.5145 144.478 95.3569 144.671 95.188C144.701 95.1576 144.733 95.1294 144.766 95.1034C146.279 93.7435 147.651 91.6742 148.539 89.263ZM161.023 94.5489C159.964 92.9288 157.714 91.7273 155.028 91.3659C154.952 91.4396 154.874 91.5125 154.795 91.5843C152.917 93.2952 150.638 94.2675 148.454 94.3082C148.029 94.9269 147.576 95.4994 147.101 96.0181C148.679 97.1627 150.957 97.8448 153.338 97.8448C156.692 97.8449 159.736 96.5149 161.023 94.5489ZM152.392 103.402C151.933 102.968 151.236 103.02 150.836 103.519C150.141 104.385 146.848 105.606 141.705 105.606C136.561 105.606 133.269 104.385 132.574 103.519C132.174 103.02 131.477 102.968 131.018 103.402C130.559 103.837 130.511 104.593 130.911 105.091C132.633 107.238 137.802 108 141.705 108C145.608 108 150.777 107.238 152.499 105.091C152.899 104.593 152.851 103.837 152.392 103.402ZM127.213 78.0744C127.799 78.2536 128.408 77.8832 128.573 77.2469C130.221 70.8957 135.621 66.4599 141.705 66.4599C147.789 66.4599 153.189 70.8957 154.837 77.2469C154.974 77.7748 155.416 78.1197 155.897 78.1197C155.996 78.1197 156.097 78.105 156.197 78.0744C156.783 77.8952 157.124 77.234 156.959 76.5977C155.044 69.2191 148.772 64.0658 141.705 64.0658C134.638 64.0658 128.365 69.2192 126.451 76.5977C126.286 77.234 126.627 77.8952 127.213 78.0744ZM141.705 103.977C142.652 103.977 145.83 103.867 146.961 102.456C147.361 101.958 147.313 101.202 146.854 100.767C146.397 100.336 145.705 100.385 145.305 100.877C145.053 101.125 143.748 101.583 141.705 101.583C139.661 101.583 138.356 101.125 138.105 100.876C137.704 100.385 137.013 100.336 136.556 100.768C136.097 101.202 136.049 101.958 136.449 102.456C137.58 103.867 140.758 103.977 141.705 103.977ZM121.852 73.3338L122.433 73.6982C122.607 73.8072 122.796 73.859 122.984 73.859C123.364 73.859 123.735 73.6445 123.939 73.2606C124.244 72.6882 124.063 71.956 123.536 71.6254L122.955 71.2609C122.429 70.9304 121.754 71.1259 121.449 71.6985C121.145 72.2708 121.325 73.003 121.852 73.3338Z" fill="white"/>
</g>
<defs>
<filter id="filter0_d" x="0" y="-57" width="283.41" height="289" filterUnits="userSpaceOnUse" color-interpolation-filters="sRGB">
<feFlood flood-opacity="0" result="BackgroundImageFix"/>
<feColorMatrix in="SourceAlpha" type="matrix" values="0 0 0 0 0 0 0 0 0 0 0 0 0 0 0 0 0 0 127 0" result="hardAlpha"/>
<feOffset dy="4"/>
<feGaussianBlur stdDeviation="60"/>
<feColorMatrix type="matrix" values="0 0 0 0 1 0 0 0 0 1 0 0 0 0 1 0 0 0 1 0"/>
<feBlend mode="normal" in2="BackgroundImageFix" result="effect1_dropShadow"/>
<feBlend mode="normal" in="SourceGraphic" in2="effect1_dropShadow" result="shape"/>
</filter>
</defs>
</svg>
