<svg width="22" height="20" viewBox="0 0 22 20" fill="none" xmlns="http://www.w3.org/2000/svg">
<g opacity="0.5">
<path d="M20.9968 6.52772C20.3645 5.2308 19.2784 4.50465 18.2276 3.80157C17.4445 3.27695 16.706 2.78157 16.183 2.07234L16.086 1.94157C15.7784 1.52772 15.4276 1.05849 15.3737 0.664646C15.3691 0.632338 15.3507 0.606184 15.3414 0.573877C15.3276 0.520031 15.3122 0.469261 15.2876 0.420031C15.2691 0.380031 15.243 0.344646 15.2153 0.307723C15.183 0.266184 15.1522 0.226184 15.1122 0.192338C15.0737 0.158492 15.0322 0.135415 14.9891 0.109261C14.9491 0.0861844 14.9122 0.0646459 14.8676 0.0492613C14.8137 0.0292613 14.7584 0.021569 14.6999 0.0154151C14.6707 0.0138767 14.646 3.05176e-05 14.6153 3.05176e-05C14.5968 3.05176e-05 14.5814 0.00926133 14.5645 0.0107998C14.546 0.0123383 14.5291 0.00464589 14.5107 0.00772282C14.4768 0.0123382 14.4507 0.0307998 14.4184 0.0400306C14.366 0.0538767 14.3168 0.0677228 14.2707 0.0923382C14.2276 0.113877 14.1907 0.141569 14.1537 0.172338C14.1137 0.203107 14.0753 0.233877 14.043 0.272338C14.0107 0.309261 13.9876 0.349261 13.963 0.3908C13.9384 0.433877 13.9153 0.475415 13.8984 0.523108C13.8814 0.5708 13.8753 0.620031 13.8691 0.672338C13.8614 0.703108 13.846 0.733877 13.846 0.769261V14.477C13.2014 14.0862 12.4076 13.8462 11.5384 13.8462C9.41682 13.8462 7.6922 15.2262 7.6922 16.9231C7.6922 18.62 9.41682 20 11.5384 20C13.6599 20 15.3845 18.62 15.3845 16.9231V7.95695C16.5399 8.39849 18.4307 9.52311 18.9507 12.1493C18.8537 12.2923 18.7614 12.4477 18.6537 12.5693C18.3722 12.8877 18.4045 13.3739 18.723 13.6539C18.8691 13.7831 19.0507 13.8462 19.2307 13.8462C19.4445 13.8462 19.6553 13.757 19.8076 13.5846C20.0122 13.3523 20.1953 13.077 20.3707 12.7939C20.3907 12.7693 20.406 12.7462 20.423 12.72C21.0445 11.68 21.4568 10.3646 21.5353 9.06465C21.586 8.22926 21.3999 7.35234 20.9968 6.52772ZM11.5384 18.4616C10.2876 18.4616 9.23066 17.757 9.23066 16.9231C9.23066 16.0893 10.2876 15.3846 11.5384 15.3846C12.7891 15.3846 13.846 16.0893 13.846 16.9231C13.846 17.757 12.7891 18.4616 11.5384 18.4616ZM20.0014 8.96772C19.9799 9.32772 19.9245 9.68772 19.846 10.04C18.7645 7.86926 16.803 6.73849 15.3845 6.32003V3.49388C15.9876 4.13695 16.6876 4.61849 17.3737 5.07695C18.2953 5.69388 19.166 6.27695 19.6168 7.20157C19.8999 7.77849 20.0353 8.40772 20.0014 8.96772Z" fill="white"/>
<path d="M10 3.05176e-05H0.769231C0.344615 3.05176e-05 0 0.344646 0 0.769261C0 1.19388 0.344615 1.53849 0.769231 1.53849H10C10.4246 1.53849 10.7692 1.19388 10.7692 0.769261C10.7692 0.344646 10.4246 3.05176e-05 10 3.05176e-05Z" fill="white"/>
<path d="M10 4.61545H0.769231C0.344615 4.61545 0 4.96006 0 5.38468C0 5.80929 0.344615 6.15391 0.769231 6.15391H10C10.4246 6.15391 10.7692 5.80929 10.7692 5.38468C10.7692 4.96006 10.4246 4.61545 10 4.61545Z" fill="white"/>
<path d="M5.38461 9.2309H0.769231C0.344615 9.2309 0 9.57551 0 10.0001C0 10.4247 0.344615 10.7694 0.769231 10.7694H5.38461C5.80923 10.7694 6.15385 10.4247 6.15385 10.0001C6.15385 9.57551 5.80923 9.2309 5.38461 9.2309Z" fill="white"/>
<path d="M5.38461 13.8461H0.769231C0.344615 13.8461 0 14.1907 0 14.6154C0 15.04 0.344615 15.3846 0.769231 15.3846H5.38461C5.80923 15.3846 6.15385 15.04 6.15385 14.6154C6.15385 14.1907 5.80923 13.8461 5.38461 13.8461Z" fill="white"/>
</g>
</svg>
