<svg width="22" height="27" viewBox="0 0 22 27" fill="none" xmlns="http://www.w3.org/2000/svg">
<path opacity="0.5" d="M10.4413 1.0611V0.660148C10.4413 0.295648 10.6914 0 10.9999 0C11.3085 0 11.5587 0.295648 11.5587 0.660148V1.0611C11.5587 1.4256 11.3085 1.72125 10.9999 1.72125C10.6914 1.72125 10.4413 1.4256 10.4413 1.0611ZM5.0385 3.1239C5.14194 3.3345 5.32979 3.4533 5.52291 3.4533C5.61764 3.4533 5.71373 3.42494 5.80158 3.36554C6.0689 3.18329 6.16053 2.77965 6.0064 2.46375L5.83645 2.1168C5.6822 1.8009 5.34045 1.6929 5.07335 1.87515C4.80603 2.0574 4.71441 2.4597 4.86854 2.7756L5.0385 3.1239ZM16.1982 3.36554C16.2862 3.42494 16.3821 3.4533 16.477 3.4533C16.67 3.4533 16.8578 3.33585 16.9613 3.1239L17.1313 2.7756C17.2856 2.46105 17.1941 2.0574 16.9268 1.87515C16.6597 1.6929 16.3179 1.8009 16.1637 2.1168L15.9936 2.46375C15.8393 2.77965 15.9309 3.18329 16.1982 3.36554ZM20.4878 8.18775C20.5827 8.18775 20.6788 8.1594 20.7667 8.09865L21.0612 7.89885C21.3284 7.7166 21.4199 7.31295 21.2656 6.99705C21.1113 6.6825 20.7697 6.57315 20.5024 6.7554L20.2079 6.95655C19.9408 7.1388 19.8493 7.54245 20.0035 7.85835C20.107 8.06895 20.2947 8.18775 20.4878 8.18775ZM21.9401 19.8855C21.2147 21.5824 19.1873 22.7232 16.8954 22.7232C15.3243 22.7232 13.8525 22.1886 12.852 21.272C12.2789 21.7364 11.6738 22.0347 11.0743 22.1265C11.047 22.1305 11.0196 22.1319 10.9931 22.1319C10.9708 22.1319 10.9483 22.1292 10.9259 22.1265C10.3262 22.0347 9.72113 21.7364 9.14796 21.272C8.14737 22.1886 6.6758 22.7232 5.10456 22.7232C2.81266 22.7232 0.785333 21.5824 0.0598633 19.8855C-0.0199544 19.6992 -0.0199544 19.4778 0.0598633 19.2915C0.595193 18.0387 1.81929 17.0883 3.36817 16.6765C2.56449 15.3292 2.27102 13.7363 2.63502 12.3741C2.67951 12.2081 2.77837 12.069 2.90968 11.988C3.8277 11.4237 4.99182 11.3818 6.12521 11.8516C6.29345 11.1928 6.55813 10.6205 6.91685 10.1736C7.03968 10.0211 7.21685 9.9468 7.39358 9.9738C7.68658 10.0184 7.98097 10.1129 8.27238 10.2519C8.86344 8.77635 9.73467 7.67745 10.7668 7.1172C10.9147 7.03755 11.0849 7.03755 11.2329 7.1172C12.2646 7.6761 13.1356 8.775 13.7268 10.2492C14.0182 10.1115 14.3128 10.0184 14.6064 9.9738C14.7834 9.9468 14.9603 10.0211 15.083 10.1736C15.4419 10.6205 15.7065 11.1929 15.8748 11.8503C17.0082 11.3819 18.1723 11.4237 19.0902 11.988C19.2215 12.069 19.3204 12.2067 19.3649 12.3741C19.729 13.7363 19.4355 15.3292 18.6317 16.6765C20.1807 17.0883 21.4048 18.0387 21.9401 19.2915C22.02 19.4778 22.02 19.6992 21.9401 19.8855ZM15.1755 18.0144C15.7822 17.8362 16.3849 17.4703 16.9157 16.9438C18 15.8706 18.5681 14.306 18.3577 13.0424C17.7014 12.7413 16.8829 12.7885 16.0763 13.1706C16.1538 14.4018 15.9657 15.795 15.5009 17.1652C15.4022 17.4568 15.2932 17.7403 15.1755 18.0144ZM9.25197 10.8945C9.89556 11.4358 10.4959 12.1838 10.9988 13.0802C11.5042 12.1743 12.104 11.4264 12.746 10.8891C12.3157 9.79155 11.6997 8.93295 10.9999 8.4591C10.299 8.9343 9.68226 9.79425 9.25197 10.8945ZM5.08402 16.9438C5.61488 17.4703 6.21775 17.8362 6.82453 18.0144C6.70675 17.7403 6.59792 17.4568 6.49895 17.1652C6.03438 15.795 5.8463 14.4018 5.92371 13.1706C5.11705 12.7872 4.29858 12.7413 3.64215 13.0424C3.43182 14.306 3.99983 15.8706 5.08402 16.9438ZM8.26538 20.3971C8.02478 20.1123 7.79496 19.7964 7.57959 19.4562C6.47246 19.4333 5.31751 18.8973 4.36578 17.955C4.32576 17.9145 4.28642 17.8753 4.24754 17.8348C2.88674 18.0333 1.74636 18.6961 1.20977 19.5885C1.86207 20.6712 3.40441 21.4042 5.10443 21.4042C6.31133 21.4042 7.46571 21.0289 8.26538 20.3971ZM10.7828 15.4251C10.2261 13.7822 9.29521 12.4267 8.31676 11.7436C8.28935 11.7274 8.26355 11.7099 8.23935 11.691C8.00781 11.5371 7.77421 11.4223 7.54255 11.3508C7.3109 11.7409 7.15585 12.2418 7.07867 12.8115C7.07672 12.8466 7.07236 12.8804 7.06559 12.9155C6.93669 14.0157 7.09048 15.3603 7.53624 16.6752C7.98625 18.0036 8.68053 19.143 9.44682 19.8923C9.46471 19.9071 9.48191 19.9233 9.49854 19.9422C9.91369 20.3364 10.3488 20.6172 10.7767 20.7495C11.4634 19.5912 11.477 17.4731 10.7828 15.4251ZM14.4635 16.6752C14.9093 15.3603 15.0631 14.0171 14.9345 12.9168C14.9274 12.8817 14.9229 12.8452 14.921 12.8101C14.8438 12.2404 14.6888 11.7409 14.4573 11.3508C14.2291 11.421 13.9987 11.533 13.7698 11.6829C13.7397 11.7085 13.7068 11.7315 13.6715 11.7491C12.9116 12.2823 12.1782 13.2219 11.626 14.4045C11.6943 14.5773 11.7591 14.7542 11.8203 14.9351C12.4537 16.8035 12.5731 18.7137 12.2064 20.2C12.306 20.1204 12.4051 20.034 12.5029 19.9408C12.5184 19.9233 12.5346 19.9084 12.5512 19.8936C13.3183 19.1443 14.0133 18.0036 14.4635 16.6752ZM20.7901 19.5885C20.2535 18.6961 19.113 18.0333 17.7522 17.8348C17.7135 17.8753 17.6739 17.9145 17.634 17.955C16.6823 18.8973 15.5274 19.4333 14.4204 19.4562C14.2049 19.7964 13.9752 20.1123 13.7345 20.3971C14.5343 21.0289 15.6887 21.4042 16.8954 21.4042C18.5954 21.4042 20.1378 20.6712 20.7901 19.5885ZM16.416 24.4661C16.1833 24.2271 15.8304 24.2568 15.6276 24.5309C15.2754 25.0088 13.6066 25.681 10.9999 25.681C8.39325 25.681 6.72453 25.0088 6.37224 24.5309C6.16959 24.2568 5.81672 24.2271 5.58403 24.4661C5.35135 24.7064 5.32703 25.1222 5.52967 25.3976C6.40251 26.5802 9.02205 27 11.0001 27C12.9781 27 15.5975 26.5802 16.4703 25.3976C16.673 25.1222 16.6485 24.7064 16.416 24.4661ZM3.65567 10.5111C3.95247 10.6097 4.26119 10.4044 4.3449 10.0548C5.18001 6.55425 7.91675 4.11075 10.9999 4.11075C14.0832 4.11075 16.82 6.55425 17.6551 10.0548C17.7246 10.345 17.9487 10.5354 18.1926 10.5354C18.2427 10.5354 18.2938 10.5273 18.3443 10.5111C18.6413 10.4112 18.8143 10.0467 18.7306 9.69705C17.7604 5.63085 14.5814 2.7918 10.9999 2.7918C7.41858 2.7918 4.23963 5.63085 3.26943 9.69705C3.18571 10.0467 3.35865 10.4112 3.65567 10.5111ZM10.9999 24.7833C11.48 24.7833 13.0906 24.7225 13.6639 23.9449C13.8664 23.6709 13.842 23.2538 13.6093 23.0148C13.3778 22.7772 13.0273 22.8042 12.8243 23.0756C12.6969 23.2119 12.0355 23.4643 10.9999 23.4643C9.96414 23.4643 9.3029 23.2119 9.17549 23.0742C8.97239 22.8042 8.62204 22.7772 8.3905 23.0148C8.15781 23.2538 8.13349 23.6709 8.33614 23.9449C8.90954 24.7225 10.5201 24.7833 10.9999 24.7833ZM0.938657 7.89885L1.23305 8.09865C1.32101 8.1594 1.41711 8.18775 1.51206 8.18775C1.70507 8.18775 1.89269 8.06895 1.99625 7.85835C2.15072 7.54245 2.05921 7.1388 1.792 6.95655L1.49773 6.7554C1.23075 6.5745 0.888893 6.68115 0.734533 6.99705C0.580173 7.31295 0.671566 7.7166 0.938657 7.89885Z" fill="white"/>
</svg>
